# xmcd
#
# Track frame offsets:
#	150
#	5072
#	31237
#	50025
#	65565
#	91035
#	105435
#	124982
#	150507
#	162822
#	188775
#	204065
#
# Disc length: 2807 seconds
#
# Revision: 786435
# Processed by: cddbd v1.5.2PL0 Copyright (c) Steve Scherf et al.
# Submitted via: EZCDAudioConverter 8.0.2.1
#
DISCID=900af50c
DTITLE=Như Mai - Tình Hận
DYEAR=1988
DGENRE=
TTITLE0=MC - Lời giới thiệu
TTITLE1=Như Mai - Em đi rồi
TTITLE2=Như Mai, Elvis Phương - Bên anh đêm này
TTITLE3=Như Mai - Hoa sầu
TTITLE4=Như Mai, Huy Sinh - Sao đành xa em
TTITLE5=Như Mai - Thao thức
TTITLE6=Như Mai - Tình Hận
TTITLE7=Như Mai, Vũ Khanh - Còn nhớ hay không
TTITLE8=Như Mai - Ngày vui còn đâu
TTITLE9=Như Mai, Quốc Sĩ - Kỷ niệm xa bay
TTITLE10=Như Mai - Đôi mắt đa tình
TTITLE11=Như Mai - Lời kết
EXTD=
EXTT0=
EXTT1=
EXTT2=
EXTT3=
EXTT4=
EXTT5=
EXTT6=
EXTT7=
EXTT8=
EXTT9=
EXTT10=
EXTT11=
PLAYORDER=
